# 3ds Max Wavefront OBJ Exporter v0.97b - (c)2007 guruware
# File Created: 06.09.2019 13:21:25

mtllib cone.mtl

#
# object Cone001
#

v  0.1351 0.0000 -2.8478
v  2.3639 0.0000 2.5332
v  3.1242 0.0000 8.3078
v  -19.1870 0.0000 8.3078
v  -8.0314 0.0000 -11.0143
v  -3.4106 0.0000 -7.4686
v  -19.1870 0.0000 -14.0034
v  -13.4124 0.0000 -13.2432
v  -30.3426 0.0000 -11.0143
v  -24.9615 0.0000 -13.2432
v  -38.5090 0.0000 -2.8478
v  -34.9634 0.0000 -7.4686
v  -41.4982 0.0000 8.3078
v  -40.7379 0.0000 2.5332
v  -38.5090 0.0000 19.4633
v  -40.7379 0.0000 14.0823
v  -30.3426 0.0000 27.6298
v  -34.9634 0.0000 24.0841
v  -19.1870 0.0000 30.6189
v  -24.9616 0.0000 29.8587
v  -8.0314 0.0000 27.6298
v  -13.4124 0.0000 29.8587
v  0.1350 0.0000 19.4634
v  -3.4106 0.0000 24.0842
v  2.3639 0.0000 14.0823
v  -0.9583 9.2189 3.4234
v  -0.3153 9.2189 8.3078
v  -2.8436 9.2189 -1.1281
v  -5.8427 9.2189 -5.0366
v  -9.7511 9.2189 -8.0356
v  -14.3026 9.2189 -9.9209
v  -19.1870 9.2189 -10.5639
v  -24.0713 9.2189 -9.9209
v  -28.6228 9.2189 -8.0356
v  -32.5313 9.2189 -5.0366
v  -35.5304 9.2189 -1.1281
v  -37.4157 9.2189 3.4234
v  -38.0587 9.2189 8.3078
v  -37.4157 9.2189 13.1921
v  -35.5304 9.2189 17.7436
v  -32.5313 9.2189 21.6521
v  -28.6229 9.2189 24.6511
v  -24.0714 9.2189 26.5364
v  -19.1870 9.2189 27.1795
v  -14.3026 9.2189 26.5364
v  -9.7511 9.2189 24.6512
v  -5.8427 9.2189 21.6521
v  -2.8436 9.2189 17.7436
v  -0.9583 9.2189 13.1921
v  -4.2806 18.4377 4.3136
v  -3.7547 18.4377 8.3078
v  -5.8223 18.4377 0.5916
v  -8.2747 18.4377 -2.6045
v  -11.4709 18.4377 -5.0570
v  -15.1928 18.4377 -6.5986
v  -19.1870 18.4377 -7.1245
v  -23.1812 18.4377 -6.5987
v  -26.9031 18.4377 -5.0570
v  -30.0992 18.4377 -2.6045
v  -32.5517 18.4377 0.5916
v  -34.0934 18.4377 4.3136
v  -34.6192 18.4377 8.3078
v  -34.0934 18.4377 12.3019
v  -32.5517 18.4377 16.0239
v  -30.0993 18.4377 19.2200
v  -26.9031 18.4377 21.6725
v  -23.1812 18.4377 23.2142
v  -19.1870 18.4377 23.7400
v  -15.1928 18.4377 23.2142
v  -11.4709 18.4377 21.6725
v  -8.2747 18.4377 19.2200
v  -5.8223 18.4377 16.0239
v  -4.2806 18.4377 12.3019
v  -7.6028 27.6566 5.2038
v  -7.1942 27.6566 8.3078
v  -8.8009 27.6566 2.3114
v  -10.7068 27.6566 -0.1724
v  -13.1906 27.6566 -2.0783
v  -16.0830 27.6566 -3.2764
v  -19.1870 27.6566 -3.6850
v  -22.2910 27.6566 -3.2764
v  -25.1834 27.6566 -2.0783
v  -27.6672 27.6566 -0.1724
v  -29.5731 27.6566 2.3114
v  -30.7711 27.6566 5.2038
v  -31.1798 27.6566 8.3078
v  -30.7711 27.6566 11.4117
v  -29.5731 27.6566 14.3042
v  -27.6672 27.6566 16.7880
v  -25.1834 27.6566 18.6938
v  -22.2910 27.6566 19.8919
v  -19.1870 27.6566 20.3006
v  -16.0830 27.6566 19.8919
v  -13.1906 27.6566 18.6938
v  -10.7068 27.6566 16.7880
v  -8.8009 27.6566 14.3042
v  -7.6028 27.6566 11.4117
v  -10.9251 36.8755 6.0940
v  -10.6336 36.8755 8.3078
v  -11.7796 36.8755 4.0311
v  -13.1389 36.8755 2.2596
v  -14.9103 36.8755 0.9004
v  -16.9732 36.8755 0.0459
v  -19.1870 36.8755 -0.2456
v  -21.4008 36.8755 0.0459
v  -23.4637 36.8755 0.9004
v  -25.2351 36.8755 2.2596
v  -26.5944 36.8755 4.0311
v  -27.4489 36.8755 6.0940
v  -27.7403 36.8755 8.3078
v  -27.4489 36.8755 10.5215
v  -26.5944 36.8755 12.5844
v  -25.2351 36.8755 14.3559
v  -23.4637 36.8755 15.7152
v  -21.4008 36.8755 16.5697
v  -19.1870 36.8755 16.8611
v  -16.9732 36.8755 16.5697
v  -14.9103 36.8755 15.7152
v  -13.1389 36.8755 14.3559
v  -11.7796 36.8755 12.5844
v  -10.9251 36.8755 10.5215
v  -14.2474 46.0944 6.9842
v  -14.0731 46.0944 8.3078
v  -14.7582 46.0944 5.7508
v  -15.5709 46.0944 4.6917
v  -16.6300 46.0944 3.8790
v  -17.8634 46.0944 3.3681
v  -19.1870 46.0944 3.1939
v  -20.5106 46.0944 3.3681
v  -21.7439 46.0944 3.8790
v  -22.8031 46.0944 4.6917
v  -23.6157 46.0944 5.7508
v  -24.1266 46.0944 6.9842
v  -24.3009 46.0944 8.3078
v  -24.1266 46.0944 9.6313
v  -23.6157 46.0944 10.8647
v  -22.8031 46.0944 11.9238
v  -21.7439 46.0944 12.7365
v  -20.5106 46.0944 13.2474
v  -19.1870 46.0944 13.4217
v  -17.8634 46.0944 13.2474
v  -16.6301 46.0944 12.7365
v  -15.5709 46.0944 11.9238
v  -14.7582 46.0944 10.8647
v  -14.2474 46.0944 9.6313
v  -19.1870 46.0944 8.3078
# 146 vertices

vn 0.7287 -0.5404 -0.4207
vn 0.8128 -0.5404 -0.2178
vn 0.8414 -0.5404 0.0000
vn 0.0000 -1.0000 -0.0000
vn 0.4207 -0.5404 -0.7287
vn 0.5950 -0.5404 -0.5950
vn 0.0000 -0.5404 -0.8414
vn 0.2178 -0.5404 -0.8128
vn -0.4207 -0.5404 -0.7287
vn -0.2178 -0.5404 -0.8128
vn -0.7287 -0.5404 -0.4207
vn -0.5950 -0.5404 -0.5950
vn -0.8414 -0.5404 -0.0000
vn -0.8128 -0.5404 -0.2178
vn -0.7287 -0.5404 0.4207
vn -0.8128 -0.5404 0.2178
vn -0.4207 -0.5404 0.7287
vn -0.5950 -0.5404 0.5950
vn -0.0000 -0.5404 0.8414
vn -0.2178 -0.5404 0.8128
vn 0.4207 -0.5404 0.7287
vn 0.2178 -0.5404 0.8128
vn 0.7287 -0.5404 0.4207
vn 0.5950 -0.5404 0.5950
vn 0.8128 -0.5404 0.2178
vn 0.9050 0.3496 -0.2425
vn 0.9369 0.3496 0.0000
vn 0.8114 0.3496 -0.4685
vn 0.6625 0.3496 -0.6625
vn 0.4685 0.3496 -0.8114
vn 0.2425 0.3496 -0.9050
vn 0.0000 0.3496 -0.9369
vn -0.2425 0.3496 -0.9050
vn -0.4685 0.3496 -0.8114
vn -0.6625 0.3496 -0.6625
vn -0.8114 0.3496 -0.4685
vn -0.9050 0.3496 -0.2425
vn -0.9369 0.3496 -0.0000
vn -0.9050 0.3496 0.2425
vn -0.8114 0.3496 0.4685
vn -0.6625 0.3496 0.6625
vn -0.4685 0.3496 0.8114
vn -0.2425 0.3496 0.9050
vn -0.0000 0.3496 0.9369
vn 0.2425 0.3496 0.9050
vn 0.4685 0.3496 0.8114
vn 0.6625 0.3496 0.6625
vn 0.8114 0.3496 0.4685
vn 0.9050 0.3496 0.2425
vn 0.5802 0.7995 -0.1555
vn 0.6007 0.7995 0.0000
vn 0.5202 0.7995 -0.3003
vn 0.4247 0.7995 -0.4247
vn 0.3003 0.7995 -0.5202
vn 0.1555 0.7995 -0.5802
vn 0.0000 0.7995 -0.6007
vn -0.1555 0.7995 -0.5802
vn -0.3003 0.7995 -0.5202
vn -0.4247 0.7995 -0.4247
vn -0.5202 0.7995 -0.3003
vn -0.5802 0.7995 -0.1555
vn -0.6007 0.7995 -0.0000
vn -0.5802 0.7995 0.1555
vn -0.5202 0.7995 0.3003
vn -0.4247 0.7995 0.4247
vn -0.3003 0.7995 0.5202
vn -0.1555 0.7995 0.5802
vn -0.0000 0.7995 0.6007
vn 0.1555 0.7995 0.5802
vn 0.3003 0.7995 0.5202
vn 0.4247 0.7995 0.4247
vn 0.5202 0.7995 0.3003
vn 0.5802 0.7995 0.1555
vn 0.0000 1.0000 -0.0000
# 74 vertex normals

vt 0.8333 0.0000 1.0000
vt 0.7917 0.0000 1.0000
vt 0.7500 0.0000 1.0000
vt 0.5000 0.0000 0.0000
vt 0.9167 0.0000 1.0000
vt 0.8750 0.0000 1.0000
vt 1.0000 0.0000 1.0000
vt 0.9583 0.0000 1.0000
vt 0.0833 0.0000 1.0000
vt 0.0417 0.0000 1.0000
vt 0.0000 0.0000 1.0000
vt 0.1667 0.0000 1.0000
vt 0.1250 0.0000 1.0000
vt 0.2500 0.0000 1.0000
vt 0.2083 0.0000 1.0000
vt 0.3333 0.0000 1.0000
vt 0.2917 0.0000 1.0000
vt 0.4167 0.0000 1.0000
vt 0.3750 0.0000 1.0000
vt 0.5000 0.0000 1.0000
vt 0.4583 0.0000 1.0000
vt 0.5833 0.0000 1.0000
vt 0.5417 0.0000 1.0000
vt 0.6667 0.0000 1.0000
vt 0.6250 0.0000 1.0000
vt 0.7083 0.0000 1.0000
vt 0.7917 0.2000 0.8458
vt 0.7500 0.2000 0.8458
vt 0.8333 0.2000 0.8458
vt 0.8750 0.2000 0.8458
vt 0.9167 0.2000 0.8458
vt 0.9583 0.2000 0.8458
vt 1.0000 0.2000 0.8458
vt 0.0417 0.2000 0.8458
vt 0.0000 0.2000 0.8458
vt 0.0833 0.2000 0.8458
vt 0.1250 0.2000 0.8458
vt 0.1667 0.2000 0.8458
vt 0.2083 0.2000 0.8458
vt 0.2500 0.2000 0.8458
vt 0.2917 0.2000 0.8458
vt 0.3333 0.2000 0.8458
vt 0.3750 0.2000 0.8458
vt 0.4167 0.2000 0.8458
vt 0.4583 0.2000 0.8458
vt 0.5000 0.2000 0.8458
vt 0.5417 0.2000 0.8458
vt 0.5833 0.2000 0.8458
vt 0.6250 0.2000 0.8458
vt 0.6667 0.2000 0.8458
vt 0.7083 0.2000 0.8458
vt 0.7917 0.4000 0.6917
vt 0.7500 0.4000 0.6917
vt 0.8333 0.4000 0.6917
vt 0.8750 0.4000 0.6917
vt 0.9167 0.4000 0.6917
vt 0.9583 0.4000 0.6917
vt 1.0000 0.4000 0.6917
vt 0.0417 0.4000 0.6917
vt 0.0000 0.4000 0.6917
vt 0.0833 0.4000 0.6917
vt 0.1250 0.4000 0.6917
vt 0.1667 0.4000 0.6917
vt 0.2083 0.4000 0.6917
vt 0.2500 0.4000 0.6917
vt 0.2917 0.4000 0.6917
vt 0.3333 0.4000 0.6917
vt 0.3750 0.4000 0.6917
vt 0.4167 0.4000 0.6917
vt 0.4583 0.4000 0.6917
vt 0.5000 0.4000 0.6917
vt 0.5417 0.4000 0.6917
vt 0.5833 0.4000 0.6917
vt 0.6250 0.4000 0.6917
vt 0.6667 0.4000 0.6917
vt 0.7083 0.4000 0.6917
vt 0.7917 0.6000 0.5375
vt 0.7500 0.6000 0.5375
vt 0.8333 0.6000 0.5375
vt 0.8750 0.6000 0.5375
vt 0.9167 0.6000 0.5375
vt 0.9583 0.6000 0.5375
vt 1.0000 0.6000 0.5375
vt 0.0417 0.6000 0.5375
vt 0.0000 0.6000 0.5375
vt 0.0833 0.6000 0.5375
vt 0.1250 0.6000 0.5375
vt 0.1667 0.6000 0.5375
vt 0.2083 0.6000 0.5375
vt 0.2500 0.6000 0.5375
vt 0.2917 0.6000 0.5375
vt 0.3333 0.6000 0.5375
vt 0.3750 0.6000 0.5375
vt 0.4167 0.6000 0.5375
vt 0.4583 0.6000 0.5375
vt 0.5000 0.6000 0.5375
vt 0.5417 0.6000 0.5375
vt 0.5833 0.6000 0.5375
vt 0.6250 0.6000 0.5375
vt 0.6667 0.6000 0.5375
vt 0.7083 0.6000 0.5375
vt 0.7917 0.8000 0.3834
vt 0.7500 0.8000 0.3834
vt 0.8333 0.8000 0.3834
vt 0.8750 0.8000 0.3834
vt 0.9167 0.8000 0.3834
vt 0.9583 0.8000 0.3834
vt 1.0000 0.8000 0.3834
vt 0.0417 0.8000 0.3834
vt 0.0000 0.8000 0.3834
vt 0.0833 0.8000 0.3834
vt 0.1250 0.8000 0.3834
vt 0.1667 0.8000 0.3834
vt 0.2083 0.8000 0.3834
vt 0.2500 0.8000 0.3834
vt 0.2917 0.8000 0.3834
vt 0.3333 0.8000 0.3834
vt 0.3750 0.8000 0.3834
vt 0.4167 0.8000 0.3834
vt 0.4583 0.8000 0.3834
vt 0.5000 0.8000 0.3834
vt 0.5417 0.8000 0.3834
vt 0.5833 0.8000 0.3834
vt 0.6250 0.8000 0.3834
vt 0.6667 0.8000 0.3834
vt 0.7083 0.8000 0.3834
vt 0.7917 1.0000 0.2292
vt 0.7500 1.0000 0.2292
vt 0.8333 1.0000 0.2292
vt 0.8750 1.0000 0.2292
vt 0.9167 1.0000 0.2292
vt 0.9583 1.0000 0.2292
vt 1.0000 1.0000 0.2292
vt 0.0417 1.0000 0.2292
vt 0.0000 1.0000 0.2292
vt 0.0833 1.0000 0.2292
vt 0.1250 1.0000 0.2292
vt 0.1667 1.0000 0.2292
vt 0.2083 1.0000 0.2292
vt 0.2500 1.0000 0.2292
vt 0.2917 1.0000 0.2292
vt 0.3333 1.0000 0.2292
vt 0.3750 1.0000 0.2292
vt 0.4167 1.0000 0.2292
vt 0.4583 1.0000 0.2292
vt 0.5000 1.0000 0.2292
vt 0.5417 1.0000 0.2292
vt 0.5833 1.0000 0.2292
vt 0.6250 1.0000 0.2292
vt 0.6667 1.0000 0.2292
vt 0.7083 1.0000 0.2292
vt 0.5000 1.0000 0.0000
vt -0.0076 1.0000 0.2136
# 153 texture coords

o Cone001
g Cone001
usemtl wire_008110134
s 1
f 1/1/1 2/2/2 3/3/3 4/4/4 
f 5/5/5 6/6/6 1/1/1 4/4/4 
f 7/7/7 8/8/8 5/5/5 4/4/4 
f 9/9/9 10/10/10 7/11/7 4/4/4 
f 11/12/11 12/13/12 9/9/9 4/4/4 
f 13/14/13 14/15/14 11/12/11 4/4/4 
f 15/16/15 16/17/16 13/14/13 4/4/4 
f 17/18/17 18/19/18 15/16/15 4/4/4 
f 19/20/19 20/21/20 17/18/17 4/4/4 
f 21/22/21 22/23/22 19/20/19 4/4/4 
f 23/24/23 24/25/24 21/22/21 4/4/4 
f 3/3/3 25/26/25 23/24/23 4/4/4 
s 8
f 2/2/2 26/27/26 27/28/27 3/3/3 
f 1/1/1 28/29/28 26/27/26 2/2/2 
f 6/6/6 29/30/29 28/29/28 1/1/1 
f 5/5/5 30/31/30 29/30/29 6/6/6 
f 8/8/8 31/32/31 30/31/30 5/5/5 
f 7/7/7 32/33/32 31/32/31 8/8/8 
f 10/10/10 33/34/33 32/35/32 7/11/7 
f 9/9/9 34/36/34 33/34/33 10/10/10 
f 12/13/12 35/37/35 34/36/34 9/9/9 
f 11/12/11 36/38/36 35/37/35 12/13/12 
f 14/15/14 37/39/37 36/38/36 11/12/11 
f 13/14/13 38/40/38 37/39/37 14/15/14 
f 16/17/16 39/41/39 38/40/38 13/14/13 
f 15/16/15 40/42/40 39/41/39 16/17/16 
f 18/19/18 41/43/41 40/42/40 15/16/15 
f 17/18/17 42/44/42 41/43/41 18/19/18 
f 20/21/20 43/45/43 42/44/42 17/18/17 
f 19/20/19 44/46/44 43/45/43 20/21/20 
f 22/23/22 45/47/45 44/46/44 19/20/19 
f 21/22/21 46/48/46 45/47/45 22/23/22 
f 24/25/24 47/49/47 46/48/46 21/22/21 
f 23/24/23 48/50/48 47/49/47 24/25/24 
f 25/26/25 49/51/49 48/50/48 23/24/23 
f 3/3/3 27/28/27 49/51/49 25/26/25 
f 26/27/26 50/52/26 51/53/27 27/28/27 
f 28/29/28 52/54/28 50/52/26 26/27/26 
f 29/30/29 53/55/29 52/54/28 28/29/28 
f 30/31/30 54/56/30 53/55/29 29/30/29 
f 31/32/31 55/57/31 54/56/30 30/31/30 
f 32/33/32 56/58/32 55/57/31 31/32/31 
f 33/34/33 57/59/33 56/60/32 32/35/32 
f 34/36/34 58/61/34 57/59/33 33/34/33 
f 35/37/35 59/62/35 58/61/34 34/36/34 
f 36/38/36 60/63/36 59/62/35 35/37/35 
f 37/39/37 61/64/37 60/63/36 36/38/36 
f 38/40/38 62/65/38 61/64/37 37/39/37 
f 39/41/39 63/66/39 62/65/38 38/40/38 
f 40/42/40 64/67/40 63/66/39 39/41/39 
f 41/43/41 65/68/41 64/67/40 40/42/40 
f 42/44/42 66/69/42 65/68/41 41/43/41 
f 43/45/43 67/70/43 66/69/42 42/44/42 
f 44/46/44 68/71/44 67/70/43 43/45/43 
f 45/47/45 69/72/45 68/71/44 44/46/44 
f 46/48/46 70/73/46 69/72/45 45/47/45 
f 47/49/47 71/74/47 70/73/46 46/48/46 
f 48/50/48 72/75/48 71/74/47 47/49/47 
f 49/51/49 73/76/49 72/75/48 48/50/48 
f 27/28/27 51/53/27 73/76/49 49/51/49 
f 50/52/26 74/77/26 75/78/27 51/53/27 
f 52/54/28 76/79/28 74/77/26 50/52/26 
f 53/55/29 77/80/29 76/79/28 52/54/28 
f 54/56/30 78/81/30 77/80/29 53/55/29 
f 55/57/31 79/82/31 78/81/30 54/56/30 
f 56/58/32 80/83/32 79/82/31 55/57/31 
f 57/59/33 81/84/33 80/85/32 56/60/32 
f 58/61/34 82/86/34 81/84/33 57/59/33 
f 59/62/35 83/87/35 82/86/34 58/61/34 
f 60/63/36 84/88/36 83/87/35 59/62/35 
f 61/64/37 85/89/37 84/88/36 60/63/36 
f 62/65/38 86/90/38 85/89/37 61/64/37 
f 63/66/39 87/91/39 86/90/38 62/65/38 
f 64/67/40 88/92/40 87/91/39 63/66/39 
f 65/68/41 89/93/41 88/92/40 64/67/40 
f 66/69/42 90/94/42 89/93/41 65/68/41 
f 67/70/43 91/95/43 90/94/42 66/69/42 
f 68/71/44 92/96/44 91/95/43 67/70/43 
f 69/72/45 93/97/45 92/96/44 68/71/44 
f 70/73/46 94/98/46 93/97/45 69/72/45 
f 71/74/47 95/99/47 94/98/46 70/73/46 
f 72/75/48 96/100/48 95/99/47 71/74/47 
f 73/76/49 97/101/49 96/100/48 72/75/48 
f 51/53/27 75/78/27 97/101/49 73/76/49 
f 74/77/26 98/102/26 99/103/27 75/78/27 
f 76/79/28 100/104/28 98/102/26 74/77/26 
f 77/80/29 101/105/29 100/104/28 76/79/28 
f 78/81/30 102/106/30 101/105/29 77/80/29 
f 79/82/31 103/107/31 102/106/30 78/81/30 
f 80/83/32 104/108/32 103/107/31 79/82/31 
f 81/84/33 105/109/33 104/110/32 80/85/32 
f 82/86/34 106/111/34 105/109/33 81/84/33 
f 83/87/35 107/112/35 106/111/34 82/86/34 
f 84/88/36 108/113/36 107/112/35 83/87/35 
f 85/89/37 109/114/37 108/113/36 84/88/36 
f 86/90/38 110/115/38 109/114/37 85/89/37 
f 87/91/39 111/116/39 110/115/38 86/90/38 
f 88/92/40 112/117/40 111/116/39 87/91/39 
f 89/93/41 113/118/41 112/117/40 88/92/40 
f 90/94/42 114/119/42 113/118/41 89/93/41 
f 91/95/43 115/120/43 114/119/42 90/94/42 
f 92/96/44 116/121/44 115/120/43 91/95/43 
f 93/97/45 117/122/45 116/121/44 92/96/44 
f 94/98/46 118/123/46 117/122/45 93/97/45 
f 95/99/47 119/124/47 118/123/46 94/98/46 
f 96/100/48 120/125/48 119/124/47 95/99/47 
f 97/101/49 121/126/49 120/125/48 96/100/48 
f 75/78/27 99/103/27 121/126/49 97/101/49 
f 98/102/26 122/127/50 123/128/51 99/103/27 
f 100/104/28 124/129/52 122/127/50 98/102/26 
f 101/105/29 125/130/53 124/129/52 100/104/28 
f 102/106/30 126/131/54 125/130/53 101/105/29 
f 103/107/31 127/132/55 126/131/54 102/106/30 
f 104/108/32 128/133/56 127/132/55 103/107/31 
f 105/109/33 129/134/57 128/135/56 104/110/32 
f 106/111/34 130/136/58 129/134/57 105/109/33 
f 107/112/35 131/137/59 130/136/58 106/111/34 
f 108/113/36 132/138/60 131/137/59 107/112/35 
f 109/114/37 133/139/61 132/138/60 108/113/36 
f 110/115/38 134/140/62 133/139/61 109/114/37 
f 111/116/39 135/141/63 134/140/62 110/115/38 
f 112/117/40 136/142/64 135/141/63 111/116/39 
f 113/118/41 137/143/65 136/142/64 112/117/40 
f 114/119/42 138/144/66 137/143/65 113/118/41 
f 115/120/43 139/145/67 138/144/66 114/119/42 
f 116/121/44 140/146/68 139/145/67 115/120/43 
f 117/122/45 141/147/69 140/146/68 116/121/44 
f 118/123/46 142/148/70 141/147/69 117/122/45 
f 119/124/47 143/149/71 142/148/70 118/123/46 
f 120/125/48 144/150/72 143/149/71 119/124/47 
f 121/126/49 145/151/73 144/150/72 120/125/48 
f 99/103/27 123/128/51 145/151/73 121/126/49 
s 1
f 145/151/73 123/128/51 122/127/50 146/152/74 
f 122/127/50 124/129/52 125/130/53 146/152/74 
f 125/130/53 126/131/54 127/132/55 146/152/74 
f 127/153/55 128/135/56 129/134/57 146/152/74 
f 129/134/57 130/136/58 131/137/59 146/152/74 
f 131/137/59 132/138/60 133/139/61 146/152/74 
f 133/139/61 134/140/62 135/141/63 146/152/74 
f 135/141/63 136/142/64 137/143/65 146/152/74 
f 137/143/65 138/144/66 139/145/67 146/152/74 
f 139/145/67 140/146/68 141/147/69 146/152/74 
f 141/147/69 142/148/70 143/149/71 146/152/74 
f 143/149/71 144/150/72 145/151/73 146/152/74 
# 144 polygons

